<mxfile host="app.diagrams.net" modified="2020-12-10T16:35:04.919Z" agent="5.0 (X11)" etag="je3bd9YLuE-CV9Qufsrl" version="13.10.1" type="github">
  <diagram id="SSE79zwauuAT8n8Q6bL2" name="Page-1">
    <mxGraphModel dx="2249" dy="831" grid="1" gridSize="10" guides="1" tooltips="1" connect="1" arrows="1" fold="1" page="1" pageScale="1" pageWidth="827" pageHeight="1169" math="0" shadow="0">
      <root>
        <mxCell id="0" />
        <mxCell id="1" parent="0" />
        <mxCell id="zT9SbAeMT8_BYwtl0zJ8-2" value="Test" style="rounded=0;whiteSpace=wrap;html=1;fillColor=#dae8fc;strokeColor=#6c8ebf;" vertex="1" parent="1">
          <mxGeometry x="245" y="430" width="120" height="40" as="geometry" />
        </mxCell>
        <mxCell id="zT9SbAeMT8_BYwtl0zJ8-3" value="" style="strokeWidth=2;html=1;shape=mxgraph.flowchart.annotation_2;align=left;labelPosition=right;pointerEvents=1;rotation=90;" vertex="1" parent="1">
          <mxGeometry x="190" y="40" width="50" height="300" as="geometry" />
        </mxCell>
        <mxCell id="zT9SbAeMT8_BYwtl0zJ8-4" value="Semart" style="text;html=1;strokeColor=none;fillColor=none;align=center;verticalAlign=middle;whiteSpace=wrap;rounded=0;" vertex="1" parent="1">
          <mxGeometry x="205" y="120" width="40" height="20" as="geometry" />
        </mxCell>
        <mxCell id="zT9SbAeMT8_BYwtl0zJ8-6" value="" style="html=1;shadow=0;dashed=0;align=center;verticalAlign=middle;shape=mxgraph.arrows2.arrow;dy=0.6;dx=40;direction=south;notch=0;" vertex="1" parent="1">
          <mxGeometry x="117.5" y="280" width="45" height="130" as="geometry" />
        </mxCell>
        <mxCell id="zT9SbAeMT8_BYwtl0zJ8-8" value="" style="html=1;shadow=0;dashed=0;align=center;verticalAlign=middle;shape=mxgraph.arrows2.arrow;dy=0.6;dx=40;direction=south;notch=0;" vertex="1" parent="1">
          <mxGeometry x="277.5" y="280" width="45" height="130" as="geometry" />
        </mxCell>
        <mxCell id="zT9SbAeMT8_BYwtl0zJ8-10" value="Tain + Eval" style="shape=note;whiteSpace=wrap;html=1;backgroundOutline=1;darkOpacity=0.05;fillColor=#ffe6cc;strokeColor=#d79b00;" vertex="1" parent="1">
          <mxGeometry x="75" y="200" width="130" height="50" as="geometry" />
        </mxCell>
        <mxCell id="zT9SbAeMT8_BYwtl0zJ8-11" value="Test" style="shape=note;whiteSpace=wrap;html=1;backgroundOutline=1;darkOpacity=0.05;fillColor=#dae8fc;strokeColor=#6c8ebf;" vertex="1" parent="1">
          <mxGeometry x="230" y="200" width="115" height="50" as="geometry" />
        </mxCell>
        <mxCell id="zT9SbAeMT8_BYwtl0zJ8-12" value="" style="shape=image;html=1;verticalAlign=top;verticalLabelPosition=bottom;labelBackgroundColor=#ffffff;imageAspect=0;aspect=fixed;image=https://cdn4.iconfinder.com/data/icons/evil-icons-user-interface/64/share-128.png" vertex="1" parent="1">
          <mxGeometry x="92" y="386" width="128" height="128" as="geometry" />
        </mxCell>
        <mxCell id="zT9SbAeMT8_BYwtl0zJ8-13" value="" style="shape=image;html=1;verticalAlign=top;verticalLabelPosition=bottom;labelBackgroundColor=#ffffff;imageAspect=0;aspect=fixed;image=https://cdn4.iconfinder.com/data/icons/evil-icons-user-interface/64/share-128.png;rotation=-208;" vertex="1" parent="1">
          <mxGeometry x="30" y="400" width="128" height="128" as="geometry" />
        </mxCell>
        <mxCell id="zT9SbAeMT8_BYwtl0zJ8-14" value="" style="shape=image;html=1;verticalAlign=top;verticalLabelPosition=bottom;labelBackgroundColor=#ffffff;imageAspect=0;aspect=fixed;image=https://cdn4.iconfinder.com/data/icons/evil-icons-user-interface/64/share-128.png;rotation=135;" vertex="1" parent="1">
          <mxGeometry x="-10" y="470" width="128" height="128" as="geometry" />
        </mxCell>
      </root>
    </mxGraphModel>
  </diagram>
</mxfile>
